<svg xmlns="http://www.w3.org/2000/svg" width="265" height="42" viewBox="0 0 265 42">
    <g fill="none" fill-rule="evenodd">
        <g>
            <g>
                <path fill="#FFF" fill-rule="nonzero" d="M23.465.117c11.278 1.195 19.549 11.142 18.649 22.427-.9 11.286-10.644 19.801-21.97 19.2C8.82 41.142.037 31.644.34 20.326.645 9.01 9.926-.006 21.268 0c.734 0 1.467.04 2.197.117m1.082 40.233c7.703-1.3 13.916-7.01 15.847-14.566 1.932-7.557-.78-15.54-6.918-20.365C27.338.594 18.927-.166 12.02 3.48c9.484 3.21 14.583 8.093 14.937 13.093.173 3.087-1.266 5.334-3.156 7.14l13.41-.933c.381-.027.498.413.04.547L5.28 32.48c4.397 6.073 11.868 9.125 19.268 7.87m-8.8-19c1.754-6.58-.246-13.473-5.035-17.127-4.43 2.797-7.564 7.236-8.715 12.34-1.151 5.104-.224 10.455 2.578 14.877 5.109-1.417 9.58-4.107 11.173-10.077" transform="translate(-100 -24) translate(100 24)"/>
                <path fill="#C80C0F" fill-rule="nonzero" d="M40.739 17.64c1.51 9.022-3.395 17.895-11.845 21.432-8.45 3.536-18.228.807-23.615-6.592l31.984-9.147c.457-.133.333-.573-.04-.546l-13.41.933c1.9-1.827 3.328-4.053 3.151-7.147-.334-5-5.45-9.88-14.933-13.093 5.607-2.967 12.3-3.063 17.99-.257 5.689 2.805 9.68 8.17 10.728 14.417M1.793 24.173c.432 2.584 1.378 5.054 2.782 7.267 5.109-1.417 9.58-4.107 11.173-10.077C17.5 14.783 15.5 7.89 10.712 4.237 3.99 8.484.474 16.34 1.793 24.173" transform="translate(-100 -24) translate(100 24)"/>
                <path fill="#0F0F0F" d="M259.749 12.407c1.407-.033 2.805.221 4.11.746v3.184c-.8-.48-2.04-.854-3.71-.854-2.935 0-4.537 1.947-4.537 5.647 0 3.383 1.763 5.25 4.644 5.25 1.334.036 2.65-.31 3.79-1v3.26c-1.095.467-2.217.8-4.244.8l-.01-.01c-5.342 0-8.057-3.547-8.057-8.313 0-4.767 2.571-8.71 8.014-8.71zm-60.116 0c1.407-.033 2.805.221 4.11.746v3.184c-.801-.48-2.04-.854-3.71-.854-2.935 0-4.534 1.947-4.534 5.647 0 3.383 1.76 5.25 4.641 5.25 1.334.036 2.65-.31 3.79-1v3.25c-1.095.467-2.214.8-4.244.8-5.343 0-8.067-3.547-8.067-8.313 0-4.767 2.57-8.71 8.014-8.71zm-67.89.066c1.42.009 2.829.26 4.164.744v3.06c-1.233-.55-2.564-.846-3.914-.87-1.67 0-2.44.606-2.44 1.666 0 1.107.938 1.45 2.627 2.084.163.08.328.159.493.235l.332.15.166.074.33.148c1.757.794 3.37 1.688 3.37 4.643 0 3.19-2.547 4.933-5.95 4.933-1.723.034-3.435-.282-5.032-.93v-3.14c1.361.673 2.85 1.05 4.368 1.107 1.85 0 2.788-.634 2.788-1.847 0-1.423-1.259-1.58-3.78-2.667-1.713-.763-3.34-1.95-3.34-4.693 0-3.193 2.438-4.697 5.818-4.697zm-58.948.26v10.14c-.04.896.244 1.777.802 2.48.524.624 1.315.937 2.427.937s1.93-.313 2.448-.937c.484-.649.746-1.433.754-2.238l-.006-.242v-10.14h3.56v10.264c.024.991-.134 1.979-.468 2.913-.285.747-.742 1.417-1.336 1.953-.605.528-1.325.91-2.103 1.114-.934.248-1.896.368-2.862.356-.973.012-1.944-.107-2.885-.353-.807-.21-1.559-.59-2.204-1.117-.623-.526-1.108-1.197-1.413-1.953-.309-.813-.477-1.67-.497-2.538V12.733h3.783zm155.505-.01c1.115 0 2.15.576 2.738 1.52l4.575 7.334c.542.86 1.034 1.75 1.473 2.666h.08c-.054-.736-.08-1.763-.08-2.496V12.73h3.339v16.38h-4.138l-5.563-8.857c-.517-.813-1.062-1.786-1.446-2.523h-.053c.027.703.083 1.547.083 2.333v9.044h-3.339l-.006-16.384zm20.186.007v16.377l-3.8-.004V12.73h3.8zm-182.132.003v1.464c0 .878-.713 1.591-1.593 1.593h-2.888v13.317h-3.79V15.79h-4.458v-3.057h12.729zm122.837 0v1.484c0 .869-.706 1.573-1.576 1.573h-4.906v3.527h5.51v2.733h-5.51v4h6.495v3.057H178.92V12.733h10.272zm-82.82-.006v7.226l.13-.17 5.23-7.056h3.947l-5.704 7.313-.103.13.103.13 6.923 8.807h-3.006c-.932.003-1.815-.399-2.425-1.094l-.126-.153-4.842-6.23-.127-.16h-.003v7.63h-3.79V12.727h3.793zm69.53.003v1.467c0 .878-.713 1.591-1.593 1.593h-2.895v13.317h-3.804V15.79h-4.454v-3.06H175.9zm35.215 0v6.527h6.903V12.73h3.816v16.377h-3.816V22.23h-6.903v6.877h-3.79V12.73h3.79zm-67.332.003v6.524h6.902v-6.524h3.817v16.37h-3.817V22.23h-6.902v6.873h-3.79v-16.37h3.79zm-21-.003v16.373h-3.79V12.73h3.79zm-29.76.003c1.737 0 3.092.45 4.037 1.334.945.883 1.42 2.106 1.42 3.62-.01.809-.219 1.603-.608 2.313-.48.826-1.22 1.47-2.104 1.833l-.22.104 4.601 7.163h-2.51c-1.13 0-2.177-.59-2.762-1.553l-2.949-4.86h-1.87V29.1h-3.79V12.733h6.755zm-.754 2.89h-2.21v4.6h2.21c.665.05 1.32-.184 1.8-.646.402-.449.615-1.035.594-1.637.027-.609-.18-1.205-.578-1.667-.39-.433-1.002-.65-1.816-.65z" transform="translate(-100 -24) translate(100 24)"/>
            </g>
        </g>
    </g>
</svg>
